<svg id="Capa_1" enable-background="new 0 0 512 512" height="512" viewBox="0 0 512 512" width="512" xmlns="http://www.w3.org/2000/svg" xmlns:xlink="http://www.w3.org/1999/xlink"><linearGradient id="SVGID_1_" gradientUnits="userSpaceOnUse" x1="256" x2="256" y1="512" y2="0"><stop offset="0" stop-color="#ffc8d1"/><stop offset="1" stop-color="#fff6f7"/></linearGradient><linearGradient id="SVGID_2_" gradientUnits="userSpaceOnUse" x1="256" x2="256" y1="105" y2="407"><stop offset="0" stop-color="#fd3a84"/><stop offset="1" stop-color="#ffa68d"/></linearGradient><g><g><circle cx="256" cy="256" fill="url(#SVGID_1_)" r="256"/></g><g><g><path d="m380.574 254.898-17.765-142.118c-.555-4.441-4.337-7.781-8.813-7.781h-35.53c-4.476 0-8.258 3.34-8.813 7.781l-17.765 142.118c-.321 2.524.469 5.074 2.151 6.983 1.691 1.908 4.112 3.001 6.662 3.001h26.647v53.294c-4.077 0-7.625 2.776-8.614 6.731l-17.765 71.059c-.668 2.654-.069 5.465 1.614 7.616 1.683 2.16 4.268 3.417 7 3.417h53.294c2.732 0 5.317-1.258 7-3.417 1.683-2.151 2.281-4.962 1.613-7.616l-17.765-71.059c-.989-3.956-4.537-6.731-8.614-6.731v-53.294h26.647c2.55 0 4.97-1.093 6.662-3.001 1.685-1.908 2.475-4.458 2.154-6.983zm-168.696 54.396c-14.694 0-26.647 11.953-26.647 26.647s11.953 26.647 26.647 26.647 26.647-11.953 26.647-26.647-11.953-26.647-26.647-26.647zm26.578-196.513c-.555-4.441-4.337-7.781-8.813-7.781h-35.53c-4.476 0-8.258 3.34-8.813 7.781l-16.792 134.337h86.74zm32.422 152.101h-118.555c-8.867 9.858-17.921 24.148-20.316 43.31-4.684 37.438 17.435 91.079 18.381 93.343 1.379 3.305 4.615 5.465 8.197 5.465h105.998c3.583 0 6.818-2.16 8.197-5.465.945-2.264 23.064-55.905 18.38-93.343-2.392-19.131-11.425-33.449-20.282-43.31zm-59 115.471c-24.487 0-44.412-19.925-44.412-44.412s19.925-44.412 44.412-44.412 44.412 19.925 44.412 44.412-19.925 44.412-44.412 44.412z" fill="url(#SVGID_2_)"/></g></g></g></svg>