<svg id="Capa_1" enable-background="new 0 0 511.795 511.795" height="512" viewBox="0 0 511.795 511.795" width="512" xmlns="http://www.w3.org/2000/svg"><g><path d="m88.554 484.149h-81.054c-4.143 0-7.5-3.357-7.5-7.5s3.357-7.5 7.5-7.5h81.054c49.222 0 86.523-5.818 114.034-17.786 23.176-10.083 40.029-24.497 52.263-44.875h-89.205c-28.692 0-51.068-24.37-54.021-57.661h-104.125c-4.143 0-7.5-3.357-7.5-7.5s3.357-7.5 7.5-7.5h111.294c36.385 0 68.252-12.816 92.155-37.064l55.33-56.253-32.639-32.86c-1.747-1.759-2.512-4.268-2.044-6.702.469-2.435 2.11-4.48 4.385-5.466 7.005-3.033 13.641-5.879 19.961-8.591 28.948-12.417 51.813-22.226 72.894-34.129 3.607-2.033 8.183-.763 10.219 2.844s.764 8.182-2.844 10.219c-21.791 12.304-44.987 22.254-74.354 34.852-3.189 1.368-6.459 2.771-9.815 4.214l82.14 82.697c35.133-80.748 54.336-118.598 118.224-182.487l40.637-40.636c2.57-2.571 3.933-6.129 3.736-9.763-.199-3.682-1.913-7-4.826-9.344-4.992-4.014-12.653-3.406-17.443 1.385l-40.636 40.636c-27.71 27.709-49.656 46.761-71.16 61.775-3.398 2.373-8.073 1.541-10.443-1.855-2.371-3.396-1.54-8.072 1.855-10.443 20.756-14.491 42.079-33.021 69.14-60.083l40.634-40.639c10.299-10.296 26.399-11.355 37.451-2.465 6.186 4.975 9.978 12.346 10.403 20.222.426 7.881-2.528 15.601-8.106 21.179l-40.638 40.637c-64.562 64.563-82.243 102.024-119.472 187.995-.989 2.283-3.046 3.928-5.491 4.39-2.442.458-4.96-.319-6.713-2.085l-33.345-33.571c-8.829 8.946-30.214 30.574-55.466 55.827-1.916 1.915-3.771 3.77-5.566 5.564h59.249c9.432 0 17.106 7.665 17.11 17.086.004 13.905-3.688 26.987-10.394 36.838-7.441 10.928-18.018 17.263-30.788 18.509-28.15 54.536-83.427 77.889-183.58 77.889zm38.151-135.517c2.474 21.8 16.045 42.855 38.94 42.855h101.578c.101-.002.201-.002.302 0 9.787-.041 17.523-4.139 22.999-12.18 4.956-7.278 7.796-17.626 7.793-28.391 0-1.152-.947-2.091-2.11-2.091h-74.26c-18.829 18.807-27.629 27.557-27.742 27.669-2.937 2.922-7.686 2.908-10.606-.03-2.921-2.938-2.907-7.687.03-10.606.141-.14 13.614-13.537 42.984-42.9l-10.435-10.436c-24.03 21.797-55.312 34.422-89.473 36.11zm100.148-46.648 10.366 10.366c22.989-23.02 42.071-42.321 50.2-50.558l-10.568-10.641z"/></g></svg>